<mxfile host="app.diagrams.net" modified="2023-09-07T08:15:19.795Z" agent="Mozilla/5.0 (Windows NT 10.0; Win64; x64) AppleWebKit/537.36 (KHTML, like Gecko) Chrome/116.0.0.0 Safari/537.36/8mqQaZuL-16" etag="zE7s6BbmJfJoHYtejwPo" version="21.7.2" type="device">
  <diagram name="Page-1" id="Aqbme3EHxdDplml4xUgw">
    <mxGraphModel dx="1050" dy="574" grid="1" gridSize="10" guides="1" tooltips="1" connect="1" arrows="1" fold="1" page="1" pageScale="1" pageWidth="827" pageHeight="1169" math="0" shadow="0">
      <root>
        <mxCell id="0" />
        <mxCell id="1" parent="0" />
        <mxCell id="C34kojonqWTYud05AzeE-3" value="" style="ellipse;whiteSpace=wrap;html=1;aspect=fixed;" parent="1" vertex="1">
          <mxGeometry x="310" y="210" width="140" height="140" as="geometry" />
        </mxCell>
        <mxCell id="C34kojonqWTYud05AzeE-1" value="" style="endArrow=none;html=1;rounded=0;" parent="1" edge="1">
          <mxGeometry width="50" height="50" relative="1" as="geometry">
            <mxPoint x="200" y="280" as="sourcePoint" />
            <mxPoint x="560" y="280" as="targetPoint" />
          </mxGeometry>
        </mxCell>
        <mxCell id="C34kojonqWTYud05AzeE-2" value="" style="endArrow=none;html=1;rounded=0;" parent="1" edge="1">
          <mxGeometry width="50" height="50" relative="1" as="geometry">
            <mxPoint x="380" y="440" as="sourcePoint" />
            <mxPoint x="380" y="120" as="targetPoint" />
          </mxGeometry>
        </mxCell>
        <mxCell id="C34kojonqWTYud05AzeE-5" value="" style="endArrow=none;html=1;rounded=0;entryX=0.878;entryY=0.171;entryDx=0;entryDy=0;entryPerimeter=0;" parent="1" target="C34kojonqWTYud05AzeE-3" edge="1">
          <mxGeometry width="50" height="50" relative="1" as="geometry">
            <mxPoint x="380" y="280" as="sourcePoint" />
            <mxPoint x="440" y="270" as="targetPoint" />
          </mxGeometry>
        </mxCell>
        <mxCell id="C34kojonqWTYud05AzeE-15" value="&lt;font style=&quot;font-size: 9px;&quot;&gt;&amp;nbsp;&lt;b style=&quot;color: rgb(32, 33, 36); font-family: Roboto, arial, sans-serif; text-align: left; background-color: rgb(255, 255, 255);&quot;&gt;Φ&lt;/b&gt;&lt;/font&gt;&lt;div style=&quot;text-align: left; font-size: 1px;&quot;&gt;&lt;/div&gt;" style="text;html=1;strokeColor=none;fillColor=none;align=center;verticalAlign=middle;whiteSpace=wrap;rounded=0;rotation=0;" parent="1" vertex="1">
          <mxGeometry x="380" y="260" width="40" height="25" as="geometry" />
        </mxCell>
        <mxCell id="C34kojonqWTYud05AzeE-19" value="K(x,y)" style="text;html=1;align=center;verticalAlign=middle;resizable=0;points=[];autosize=1;strokeColor=none;fillColor=none;" parent="1" vertex="1">
          <mxGeometry x="425" y="210" width="50" height="30" as="geometry" />
        </mxCell>
        <mxCell id="C34kojonqWTYud05AzeE-20" value="" style="endArrow=classic;html=1;rounded=0;" parent="1" edge="1">
          <mxGeometry width="50" height="50" relative="1" as="geometry">
            <mxPoint x="380" y="160" as="sourcePoint" />
            <mxPoint x="380" y="120" as="targetPoint" />
          </mxGeometry>
        </mxCell>
        <mxCell id="C34kojonqWTYud05AzeE-21" value="" style="endArrow=classic;html=1;rounded=0;" parent="1" edge="1">
          <mxGeometry width="50" height="50" relative="1" as="geometry">
            <mxPoint x="520" y="280" as="sourcePoint" />
            <mxPoint x="570" y="280" as="targetPoint" />
          </mxGeometry>
        </mxCell>
        <mxCell id="C34kojonqWTYud05AzeE-22" value="" style="endArrow=classic;html=1;rounded=0;" parent="1" edge="1">
          <mxGeometry width="50" height="50" relative="1" as="geometry">
            <mxPoint x="380" y="400" as="sourcePoint" />
            <mxPoint x="380" y="450" as="targetPoint" />
          </mxGeometry>
        </mxCell>
        <mxCell id="C34kojonqWTYud05AzeE-23" value="" style="endArrow=classic;html=1;rounded=0;" parent="1" edge="1">
          <mxGeometry width="50" height="50" relative="1" as="geometry">
            <mxPoint x="240" y="280" as="sourcePoint" />
            <mxPoint x="190" y="280" as="targetPoint" />
          </mxGeometry>
        </mxCell>
        <mxCell id="C34kojonqWTYud05AzeE-24" value="X-axis" style="text;html=1;align=center;verticalAlign=middle;resizable=0;points=[];autosize=1;strokeColor=none;fillColor=none;" parent="1" vertex="1">
          <mxGeometry x="560" y="265" width="60" height="30" as="geometry" />
        </mxCell>
        <mxCell id="C34kojonqWTYud05AzeE-25" value="Y-axis" style="text;html=1;align=center;verticalAlign=middle;resizable=0;points=[];autosize=1;strokeColor=none;fillColor=none;" parent="1" vertex="1">
          <mxGeometry x="350" y="90" width="60" height="30" as="geometry" />
        </mxCell>
        <mxCell id="C34kojonqWTYud05AzeE-26" value="r" style="text;html=1;align=center;verticalAlign=middle;resizable=0;points=[];autosize=1;strokeColor=none;fillColor=none;" parent="1" vertex="1">
          <mxGeometry x="400" y="240" width="30" height="30" as="geometry" />
        </mxCell>
        <mxCell id="C34kojonqWTYud05AzeE-27" value="Q(x&#39;, y&#39;)" style="text;html=1;align=center;verticalAlign=middle;resizable=0;points=[];autosize=1;strokeColor=none;fillColor=none;" parent="1" vertex="1">
          <mxGeometry x="430" y="310" width="60" height="30" as="geometry" />
        </mxCell>
        <mxCell id="Nr6qCFWxbg1SIQt7KEen-1" value="" style="endArrow=none;html=1;rounded=0;entryX=0.923;entryY=0.758;entryDx=0;entryDy=0;entryPerimeter=0;exitX=-0.001;exitY=0.808;exitDx=0;exitDy=0;exitPerimeter=0;" parent="1" source="C34kojonqWTYud05AzeE-15" target="C34kojonqWTYud05AzeE-3" edge="1">
          <mxGeometry width="50" height="50" relative="1" as="geometry">
            <mxPoint x="390" y="290" as="sourcePoint" />
            <mxPoint x="443" y="244" as="targetPoint" />
          </mxGeometry>
        </mxCell>
        <mxCell id="Nr6qCFWxbg1SIQt7KEen-2" value="r" style="text;html=1;align=center;verticalAlign=middle;resizable=0;points=[];autosize=1;strokeColor=none;fillColor=none;" parent="1" vertex="1">
          <mxGeometry x="406" y="280" width="30" height="30" as="geometry" />
        </mxCell>
        <mxCell id="Nr6qCFWxbg1SIQt7KEen-3" value="" style="verticalLabelPosition=bottom;verticalAlign=top;html=1;shape=mxgraph.basic.arc;startAngle=0.27213780665089266;endAngle=0.6903676348913916;direction=north;" parent="1" vertex="1">
          <mxGeometry x="380" y="275" width="10" height="10" as="geometry" />
        </mxCell>
        <mxCell id="Nr6qCFWxbg1SIQt7KEen-4" value="&lt;font style=&quot;font-size: 9px;&quot;&gt;θ&lt;/font&gt;" style="text;html=1;align=center;verticalAlign=middle;resizable=0;points=[];autosize=1;strokeColor=none;fillColor=none;" parent="1" vertex="1">
          <mxGeometry x="385" y="270" width="30" height="30" as="geometry" />
        </mxCell>
      </root>
    </mxGraphModel>
  </diagram>
</mxfile>
